<?xml version="1.0" encoding="UTF-8"?><svg id="Layer_1" xmlns="http://www.w3.org/2000/svg" viewBox="0 0 275.38 57.89"><defs><style>.cls-1{letter-spacing:0em;}.cls-2{letter-spacing:-.01em;}.cls-3{letter-spacing:0em;}.cls-4{letter-spacing:0em;}.cls-5{fill:#fff;font-family:MyriadPro-Regular, 'Myriad Pro';font-size:33.75px;}.cls-6{letter-spacing:0em;}.cls-7{letter-spacing:0em;}.cls-8{fill:none;stroke:#fff;stroke-miterlimit:10;stroke-width:.5px;}.cls-9{letter-spacing:0em;}</style></defs><text class="cls-5" transform="translate(68.9 40.92)"><tspan class="cls-4" x="0" y="0">A</tspan><tspan class="cls-9" x="20.45" y="0">skew</tspan><tspan class="cls-1" x="91.4" y="0">C</tspan><tspan class="cls-2" x="110.87" y="0">r</tspan><tspan x="121.57" y="0">e</tspan><tspan class="cls-6" x="138.48" y="0">a</tspan><tspan x="154.61" y="0">ti</tspan><tspan class="cls-7" x="173.68" y="0">v</tspan><tspan class="cls-3" x="189.58" y="0">e</tspan></text><path class="cls-8" d="M14.06,0s.01,14.05,14.06,14.05c0,0-14.06,0-14.06,14.06h0S14.04,14.06,0,14.06C0,14.06,14.06,14.05,14.06,0h0Z"/><path class="cls-8" d="M44.16,0s.01,14.05,14.06,14.05c0,0-14.06,0-14.06,14.06h0s-.01-14.05-14.06-14.05c0,0,14.06,0,14.06-14.06h0Z"/><path class="cls-8" d="M14.06,29.78s.01,14.05,14.06,14.05c0,0-14.06,0-14.06,14.06h0S14.04,43.83,0,43.83c0,0,14.06,0,14.06-14.06h0Z"/><path class="cls-8" d="M44.16,29.78s.01,14.05,14.06,14.05c0,0-14.06,0-14.06,14.06h0s-.01-14.05-14.06-14.05c0,0,14.06,0,14.06-14.06h0Z"/></svg>