<?xml version="1.0" encoding="UTF-8"?><svg id="Layer_1" xmlns="http://www.w3.org/2000/svg" viewBox="0 0 298.2 296.51"><defs><style>.cls-1{fill:none;stroke:#fff;stroke-miterlimit:10;}</style></defs><path class="cls-1" d="M72,0s.07,71.98,72,71.98c0,0-72,.01-72,72h0S71.92,72,0,72C0,72,72,71.99,72,0h0Z"/><path class="cls-1" d="M226.2,0s.07,71.98,72,71.98c0,0-72,.01-72,72h0s-.07-71.98-72-71.98c0,0,72-.01,72-72h0Z"/><path class="cls-1" d="M72,152.53s.07,71.98,72,71.98c0,0-72,.01-72,72h0S71.92,224.53,0,224.53c0,0,72-.01,72-72h0Z"/><path class="cls-1" d="M226.2,152.53s.07,71.98,72,71.98c0,0-72,.01-72,72h0s-.07-71.98-72-71.98c0,0,72-.01,72-72h0Z"/></svg>