<?xml version="1.0" encoding="utf-8"?>
<!-- Generator: Adobe Illustrator 26.0.3, SVG Export Plug-In . SVG Version: 6.00 Build 0)  -->
<svg version="1.0" id="Layer_1" xmlns="http://www.w3.org/2000/svg" xmlns:xlink="http://www.w3.org/1999/xlink" x="0px" y="0px"
	 viewBox="0 0 300 65.94" enable-background="new 0 0 300 65.94" xml:space="preserve">
<g>
	<path fill="#FFFFFF" d="M85.57,37.83l-2.36,7.16h-3.04l7.73-22.75h3.54l7.76,22.75h-3.14l-2.43-7.16H85.57z M93.03,35.53
		l-2.23-6.55c-0.51-1.48-0.84-2.83-1.18-4.15h-0.07c-0.34,1.35-0.71,2.73-1.15,4.12l-2.23,6.58H93.03z"/>
	<path fill="#FFFFFF" d="M101.83,41.95c0.88,0.57,2.43,1.18,3.92,1.18c2.16,0,3.17-1.08,3.17-2.43c0-1.42-0.84-2.19-3.04-3
		c-2.94-1.05-4.32-2.67-4.32-4.62c0-2.63,2.13-4.79,5.64-4.79c1.65,0,3.1,0.47,4.02,1.01l-0.74,2.16c-0.64-0.4-1.82-0.94-3.34-0.94
		c-1.75,0-2.73,1.01-2.73,2.23c0,1.35,0.98,1.96,3.11,2.77c2.83,1.08,4.29,2.5,4.29,4.93c0,2.87-2.23,4.89-6.11,4.89
		c-1.79,0-3.44-0.44-4.59-1.11L101.83,41.95z"/>
	<path fill="#FFFFFF" d="M118.54,36.14h0.07c0.41-0.57,0.98-1.28,1.45-1.86l4.79-5.64h3.58l-6.31,6.72l7.19,9.62h-3.61l-5.64-7.83
		l-1.52,1.69v6.14h-2.94V21.02h2.94V36.14z"/>
	<path fill="#FFFFFF" d="M133.09,37.36c0.07,4.02,2.63,5.67,5.6,5.67c2.13,0,3.41-0.37,4.52-0.84l0.51,2.13
		c-1.05,0.47-2.84,1.01-5.43,1.01c-5.03,0-8.03-3.31-8.03-8.24c0-4.93,2.9-8.81,7.66-8.81c5.33,0,6.75,4.69,6.75,7.7
		c0,0.61-0.07,1.08-0.1,1.38H133.09z M141.79,35.23c0.03-1.89-0.78-4.83-4.12-4.83c-3,0-4.32,2.77-4.56,4.83H141.79z"/>
	<path fill="#FFFFFF" d="M149.52,28.65l2.16,8.3c0.47,1.82,0.91,3.51,1.21,5.2h0.1c0.37-1.65,0.91-3.41,1.45-5.16l2.67-8.34h2.5
		l2.53,8.17c0.61,1.96,1.08,3.68,1.45,5.33h0.1c0.27-1.65,0.71-3.38,1.25-5.3l2.33-8.2h2.94l-5.27,16.34h-2.7l-2.5-7.8
		c-0.57-1.82-1.05-3.44-1.45-5.37h-0.07c-0.41,1.96-0.91,3.64-1.49,5.4l-2.63,7.76h-2.7l-4.93-16.34H149.52z"/>
	<path fill="#FFFFFF" d="M189.18,44.24c-1.08,0.54-3.24,1.08-6.01,1.08c-6.41,0-11.24-4.05-11.24-11.51
		c0-7.12,4.83-11.95,11.88-11.95c2.83,0,4.62,0.61,5.4,1.01l-0.71,2.4c-1.11-0.54-2.7-0.94-4.59-0.94c-5.33,0-8.88,3.41-8.88,9.38
		c0,5.57,3.21,9.15,8.74,9.15c1.79,0,3.61-0.37,4.79-0.95L189.18,44.24z"/>
	<path fill="#FFFFFF" d="M192.66,33.74c0-1.92-0.03-3.58-0.13-5.1h2.6l0.1,3.21h0.13c0.74-2.19,2.53-3.58,4.52-3.58
		c0.34,0,0.57,0.03,0.84,0.1v2.8c-0.3-0.07-0.61-0.1-1.01-0.1c-2.09,0-3.58,1.59-3.98,3.81c-0.07,0.41-0.13,0.88-0.13,1.38v8.71
		h-2.94V33.74z"/>
	<path fill="#FFFFFF" d="M205.01,37.36c0.07,4.02,2.63,5.67,5.6,5.67c2.13,0,3.41-0.37,4.52-0.84l0.51,2.13
		c-1.05,0.47-2.83,1.01-5.43,1.01c-5.03,0-8.03-3.31-8.03-8.24c0-4.93,2.9-8.81,7.66-8.81c5.33,0,6.75,4.69,6.75,7.7
		c0,0.61-0.07,1.08-0.1,1.38H205.01z M213.72,35.23c0.03-1.89-0.78-4.83-4.12-4.83c-3,0-4.32,2.77-4.56,4.83H213.72z"/>
	<path fill="#FFFFFF" d="M229.31,44.98l-0.24-2.06h-0.1c-0.91,1.28-2.67,2.43-5,2.43c-3.31,0-5-2.33-5-4.69
		c0-3.95,3.51-6.11,9.82-6.08v-0.34c0-1.35-0.37-3.78-3.71-3.78c-1.52,0-3.1,0.47-4.25,1.21l-0.68-1.96
		c1.35-0.88,3.31-1.45,5.37-1.45c5,0,6.21,3.41,6.21,6.68v6.11c0,1.42,0.07,2.8,0.27,3.92H229.31z M228.87,36.65
		c-3.24-0.07-6.92,0.51-6.92,3.68c0,1.92,1.28,2.84,2.8,2.84c2.13,0,3.48-1.35,3.95-2.73c0.1-0.3,0.17-0.64,0.17-0.95V36.65z"/>
	<path fill="#FFFFFF" d="M239.97,23.96v4.69h4.25v2.26h-4.25v8.81c0,2.03,0.57,3.17,2.23,3.17c0.78,0,1.35-0.1,1.72-0.2l0.13,2.23
		c-0.57,0.24-1.49,0.41-2.63,0.41c-1.38,0-2.5-0.44-3.21-1.25c-0.84-0.88-1.15-2.33-1.15-4.25v-8.91h-2.53v-2.26h2.53v-3.92
		L239.97,23.96z"/>
	<path fill="#FFFFFF" d="M250.88,24.06c0.03,1.01-0.71,1.82-1.89,1.82c-1.05,0-1.79-0.81-1.79-1.82c0-1.05,0.78-1.86,1.86-1.86
		C250.17,22.2,250.88,23.01,250.88,24.06z M247.57,44.98V28.65h2.97v16.34H247.57z"/>
	<path fill="#FFFFFF" d="M256.61,28.65l3.21,9.18c0.54,1.48,0.98,2.83,1.32,4.19h0.1c0.37-1.35,0.84-2.7,1.38-4.19l3.17-9.18h3.11
		l-6.41,16.34h-2.83l-6.21-16.34H256.61z"/>
	<path fill="#FFFFFF" d="M273.01,37.36c0.07,4.02,2.63,5.67,5.6,5.67c2.13,0,3.41-0.37,4.52-0.84l0.51,2.13
		c-1.05,0.47-2.83,1.01-5.43,1.01c-5.03,0-8.03-3.31-8.03-8.24c0-4.93,2.9-8.81,7.66-8.81c5.33,0,6.75,4.69,6.75,7.7
		c0,0.61-0.07,1.08-0.1,1.38H273.01z M281.72,35.23c0.03-1.89-0.78-4.83-4.12-4.83c-3,0-4.32,2.77-4.56,4.83H281.72z"/>
</g>
<path fill="none" stroke="#FFFFFF" stroke-width="0.5" stroke-miterlimit="10" d="M24.48,4.06c0,0,0.01,14.05,14.06,14.05
	c0,0-14.06,0-14.06,14.06h0c0,0-0.01-14.05-14.06-14.05C10.43,18.12,24.48,18.11,24.48,4.06L24.48,4.06z"/>
<path fill="none" stroke="#FFFFFF" stroke-width="0.5" stroke-miterlimit="10" d="M54.58,4.06c0,0,0.01,14.05,14.06,14.05
	c0,0-14.06,0-14.06,14.06h0c0,0-0.01-14.05-14.06-14.05C40.53,18.12,54.58,18.11,54.58,4.06L54.58,4.06z"/>
<path fill="none" stroke="#FFFFFF" stroke-width="0.5" stroke-miterlimit="10" d="M24.48,33.84c0,0,0.01,14.05,14.06,14.05
	c0,0-14.06,0-14.06,14.06h0c0,0-0.01-14.05-14.06-14.05C10.43,47.89,24.48,47.89,24.48,33.84L24.48,33.84z"/>
<path fill="none" stroke="#FFFFFF" stroke-width="0.5" stroke-miterlimit="10" d="M54.58,33.84c0,0,0.01,14.05,14.06,14.05
	c0,0-14.06,0-14.06,14.06h0c0,0-0.01-14.05-14.06-14.05C40.53,47.89,54.58,47.89,54.58,33.84L54.58,33.84z"/>
</svg>
